<svg width="1000" height="1000" viewBox="0 0 1000 1000" fill="none" xmlns="http://www.w3.org/2000/svg">
<rect width="1000" height="1000" rx="50" fill="white"/>
<path d="M382.128 363.031L245.748 481.877L382.128 380.079L520.944 485.286L382.128 363.031Z" fill="#65A30D"/>
<path d="M383.102 306.531L221.394 481.877H241.851L382.128 357.186L529.224 485.286H542.375L383.102 306.531Z" fill="#65A30D"/>
<path fill-rule="evenodd" clip-rule="evenodd" d="M655.863 347.445L456.65 356.699L563.32 476.032L655.863 347.445Z" fill="#65A30D"/>
<path d="M655.863 347.445L563.32 476.032L571.6 485.286L659.76 381.053L757.175 481.877L655.863 347.445Z" fill="#84CC16"/>
<path d="M661.708 389.82L633.945 418.557L660.734 397.126L698.239 426.838L661.708 389.82Z" fill="#65A30D"/>
<path d="M572.574 571.011C353.391 599.262 210.191 729.31 210.191 729.31C210.191 729.31 387.486 656.668 588.647 632.383C844.848 601.453 971 635.305 971 635.305C971 635.305 791.757 542.761 572.574 571.011Z" fill="#84CC16"/>
<path d="M189.247 702.034L305.171 624.589C305.171 624.589 243.799 585.137 165.381 587.085C105.489 588.573 29 618.257 29 618.257C29 618.257 71.3754 614.458 121.544 644.559C158.074 666.478 189.247 702.034 189.247 702.034Z" fill="#84CC16"/>
<path d="M449.831 507.692C598.389 507.692 729.899 542.761 729.899 542.761C729.899 542.761 613.975 533.994 500.487 557.86C386.999 581.727 338.779 605.107 338.779 605.107C338.779 605.107 313.451 589.668 273.998 576.369C239.207 564.641 182.428 558.835 182.428 558.835C182.428 558.835 291.046 507.692 449.831 507.692Z" fill="#84CC16"/>
<rect x="364.594" y="452.165" width="15.5863" height="15.5863" fill="#65A30D"/>
<rect x="385.051" y="452.165" width="15.5863" height="15.5863" fill="#65A30D"/>
<rect x="364.594" y="431.708" width="15.5863" height="15.5863" fill="#65A30D"/>
<rect x="385.051" y="431.708" width="15.5863" height="15.5863" fill="#65A30D"/>
<rect x="650.993" y="447.295" width="9.74147" height="9.74147" fill="#65A30D"/>
<rect x="664.631" y="447.295" width="9.74147" height="9.74147" fill="#65A30D"/>
<rect x="664.631" y="460.933" width="9.74147" height="9.74147" fill="#65A30D"/>
<rect x="650.993" y="460.933" width="9.74147" height="9.74147" fill="#65A30D"/>
<path d="M135.669 531.071C135.669 531.071 168.887 536.429 200.45 496.976C219.933 472.623 236.754 434.378 230.648 392.255C226.266 362.027 215.648 345.852 197.04 321.63C177.96 296.792 135.669 270 135.669 270V531.071Z" fill="#84CC16"/>
<path d="M69.4269 327.475C53.6303 350.106 45.0707 364.932 41.1766 392.255C35.1047 434.859 53.3537 475.545 72.3493 497.95C102.494 533.507 135.669 531.071 135.669 531.071V270C135.669 270 89.0294 299.39 69.4269 327.475Z" fill="#65A30D"/>
<path d="M839.78 530.903V350.854C839.78 350.854 807.586 371.123 794.055 390.492C783.151 406.1 777.243 416.324 774.555 435.168C770.364 464.55 782.961 492.609 796.073 508.061C816.881 532.582 839.78 530.903 839.78 530.903Z" fill="#65A30D"/>
<path d="M839.78 350.854V530.903C839.78 530.903 862.71 534.598 884.496 507.389C897.944 490.593 909.556 464.218 905.341 435.168C902.316 414.321 894.987 403.166 882.143 386.461C868.972 369.332 839.78 350.854 839.78 350.854Z" fill="#84CC16"/>
<path d="M847.77 594.391H831.21L839.977 399.074L847.77 594.391Z" fill="#713F12"/>
<path d="M122.518 625.564H146.872L135.669 338.677L122.518 625.564Z" fill="#713F12"/>
</svg>
